<?xml version="1.0" standalone="no"?>
<!DOCTYPE svg PUBLIC "-//W3C//DTD SVG 20010904//EN"
 "http://www.w3.org/TR/2001/REC-SVG-20010904/DTD/svg10.dtd">
<svg version="1.0" xmlns="http://www.w3.org/2000/svg"
 width="293.000000pt" height="293.000000pt" viewBox="0 0 293.000000 293.000000"
 preserveAspectRatio="xMidYMid meet">
<metadata>
Created by potrace 1.14, written by Peter Selinger 2001-2017
</metadata>
<g transform="translate(0.000000,293.000000) scale(0.100000,-0.100000)"
fill="#000000" stroke="none">
<path d="M1891 2899 c-56 -19 -99 -47 -149 -95 -30 -29 -36 -31 -70 -23 -20 5
-73 11 -117 15 -82 6 -132 22 -155 49 -7 8 -19 15 -26 15 -8 0 -14 4 -14 9 0
11 -48 5 -64 -9 -8 -6 -19 -24 -26 -40 -7 -17 -15 -30 -19 -31 -3 -1 -17 -2
-31 -4 -20 -2 -63 -13 -120 -30 -3 -1 -18 -7 -35 -15 -16 -7 -50 -15 -75 -17
-93 -11 -224 -67 -252 -108 -3 -5 -16 -21 -28 -35 -24 -27 -60 -101 -80 -162
-6 -21 -15 -38 -19 -38 -14 0 -50 -77 -71 -154 -22 -80 -35 -226 -19 -226 4 0
6 -6 3 -13 -6 -16 18 -91 49 -157 27 -58 149 -180 209 -210 99 -48 112 -86
109 -305 -2 -138 -8 -350 -13 -422 -1 -13 -6 -23 -10 -23 -4 0 -8 -5 -8 -11 0
-14 -23 -33 -70 -58 -65 -35 -95 -70 -94 -112 2 -74 42 -98 169 -104 28 -2 55
-3 60 -4 6 -1 19 -19 29 -41 11 -22 23 -40 28 -40 4 0 8 -6 8 -14 0 -12 113
-132 189 -200 28 -25 32 -34 26 -60 -4 -17 -8 -38 -9 -46 -6 -29 25 -97 57
-128 22 -21 45 -32 74 -35 45 -6 123 10 123 24 0 5 6 9 13 9 24 0 65 91 71
154 3 32 6 59 8 61 2 1 28 10 58 19 90 29 287 128 310 156 3 3 27 18 53 34 61
35 100 36 130 5 39 -39 60 -54 99 -65 31 -10 41 -9 70 9 18 11 41 29 50 41 10
11 22 27 28 34 6 7 17 27 24 45 7 17 17 41 21 52 21 53 24 112 8 135 -17 23
-64 21 -128 -6 -99 -41 -101 -39 -148 196 -2 8 -9 29 -15 45 -19 47 -40 108
-43 123 0 4 -6 13 -12 21 -6 7 -17 27 -23 45 -30 79 -40 101 -46 106 -4 3 -9
17 -10 30 -3 22 8 29 132 80 74 30 151 66 170 78 19 12 43 22 53 22 50 0 107
67 107 126 0 31 -43 98 -73 111 -12 6 -36 16 -54 23 -37 14 -40 19 -49 98 -5
48 -3 60 9 65 29 11 38 74 21 149 -9 37 -17 107 -19 155 -2 49 -6 102 -10 118
-11 45 -10 47 18 92 15 24 27 47 27 53 0 5 4 10 8 10 10 0 16 40 16 115 1 75
-9 126 -26 136 -7 5 -9 9 -5 9 13 0 -32 62 -72 98 -53 48 -53 48 -107 65 -75
25 -163 27 -223 6z"/>
</g>
</svg>
